<?xml version="1.0" encoding="UTF-8" standalone="no"?>
<!DOCTYPE svg PUBLIC "-//W3C//DTD SVG 1.1//EN" "http://www.w3.org/Graphics/SVG/1.1/DTD/svg11.dtd">
<svg version="1.1" xmlns="http://www.w3.org/2000/svg" xmlns:xlink="http://www.w3.org/1999/xlink" preserveAspectRatio="xMidYMid meet" viewBox="0 0 640 640" width="640" height="640"><defs><path d="M81.36 206.1L113.9 151.86L526.1 151.86L558.64 206.1L81.36 206.1Z" id="b5c213TidE"></path><path d="M526.67 141.03L526.95 141.05L527.23 141.08L527.51 141.11L527.79 141.15L528.07 141.2L528.34 141.25L528.62 141.31L528.89 141.38L529.15 141.46L529.42 141.54L529.68 141.63L529.94 141.72L530.2 141.82L530.46 141.93L530.71 142.05L530.96 142.17L531.2 142.29L531.44 142.43L531.68 142.57L531.92 142.71L532.15 142.86L532.38 143.02L532.6 143.18L532.82 143.35L533.04 143.53L533.25 143.71L533.46 143.89L533.66 144.08L533.86 144.28L534.05 144.48L534.24 144.69L534.42 144.9L534.6 145.12L534.77 145.34L534.94 145.57L535.1 145.8L535.25 146.04L535.4 146.28L567.95 200.52L568.09 200.77L568.23 201.03L568.37 201.28L568.49 201.55L568.61 201.81L568.72 202.08L568.82 202.34L568.92 202.61L569.01 202.89L569.09 203.16L569.16 203.43L569.23 203.71L569.29 203.99L569.34 204.27L569.38 204.55L569.42 204.83L569.45 205.11L569.47 205.39L569.48 205.68L569.49 205.96L569.49 206.24L569.48 206.53L569.47 206.81L569.45 207.09L569.42 207.38L569.38 207.66L569.34 207.94L569.28 208.22L569.23 208.5L569.16 208.77L569.08 209.05L569 209.33L568.91 209.6L568.82 209.87L568.71 210.14L568.6 210.41L568.48 210.67L568.36 210.93L568.22 211.19L568.08 211.45L567.94 211.7L567.78 211.95L567.62 212.19L567.46 212.43L567.29 212.66L567.11 212.89L566.93 213.11L566.74 213.33L566.54 213.54L566.35 213.75L566.14 213.94L565.93 214.14L565.72 214.33L565.5 214.51L565.28 214.69L565.05 214.86L564.82 215.02L564.59 215.18L564.35 215.33L564.11 215.48L563.86 215.61L563.61 215.75L563.36 215.87L563.1 215.99L562.84 216.11L562.58 216.21L562.31 216.31L562.04 216.4L561.77 216.49L561.5 216.57L561.22 216.64L560.94 216.7L560.66 216.76L560.38 216.81L560.09 216.85L559.81 216.89L559.52 216.91L559.23 216.93L558.94 216.94L558.64 216.95L81.36 216.95L81.06 216.94L80.77 216.93L80.48 216.91L80.19 216.89L79.91 216.85L79.62 216.81L79.34 216.76L79.06 216.7L78.78 216.64L78.5 216.57L78.23 216.49L77.96 216.4L77.69 216.31L77.42 216.21L77.16 216.11L76.9 215.99L76.64 215.87L76.39 215.75L76.14 215.61L75.89 215.48L75.65 215.33L75.41 215.18L75.18 215.02L74.95 214.86L74.72 214.69L74.5 214.51L74.28 214.33L74.07 214.14L73.86 213.95L73.66 213.75L73.46 213.54L73.26 213.33L73.08 213.11L72.89 212.89L72.72 212.66L72.54 212.43L72.38 212.2L72.22 211.95L72.07 211.71L71.92 211.45L71.78 211.2L71.64 210.94L71.52 210.67L71.4 210.41L71.29 210.14L71.19 209.87L71.09 209.6L71 209.33L70.92 209.05L70.84 208.78L70.78 208.5L70.72 208.22L70.67 207.94L70.62 207.66L70.59 207.38L70.56 207.09L70.53 206.81L70.52 206.53L70.51 206.25L70.51 205.96L70.52 205.68L70.53 205.4L70.56 205.11L70.58 204.83L70.62 204.55L70.67 204.27L70.72 203.99L70.78 203.71L70.84 203.44L70.92 203.16L71 202.89L71.09 202.61L71.18 202.34L71.28 202.08L71.39 201.81L71.51 201.55L71.64 201.29L71.77 201.03L71.91 200.77L72.06 200.52L104.6 146.28L104.75 146.04L104.9 145.8L105.07 145.57L105.23 145.34L105.41 145.12L105.58 144.9L105.77 144.69L105.95 144.48L106.15 144.28L106.34 144.08L106.55 143.89L106.75 143.71L106.96 143.53L107.18 143.35L107.4 143.18L107.62 143.02L107.85 142.86L108.08 142.71L108.32 142.57L108.56 142.43L108.8 142.29L109.04 142.17L109.29 142.05L109.54 141.93L109.8 141.82L110.06 141.72L110.32 141.63L110.58 141.54L110.85 141.46L111.11 141.38L111.38 141.31L111.66 141.25L111.93 141.2L112.21 141.15L112.49 141.11L112.77 141.08L113.05 141.05L113.33 141.03L113.61 141.02L113.9 141.02L526.1 141.02L526.39 141.02L526.67 141.03ZM100.51 195.25L539.49 195.25L519.96 162.71L120.04 162.71L100.51 195.25Z" id="a1DMgtDqya"></path><path d="M561.98 271.18L580.34 629.15L59.66 629.15L81.36 206.1L558.64 206.1" id="a3EUlv9bVX"></path><path d="M59.66 640C56.69 640 53.84 638.78 51.8 636.62C49.75 634.47 48.68 631.57 48.83 628.6C51 586.3 68.36 247.85 70.53 205.55C70.82 199.78 75.58 195.25 81.36 195.25C129.08 195.25 510.92 195.25 558.64 195.25C564.63 195.25 569.49 200.1 569.49 206.1C569.49 212.1 564.63 216.95 558.64 216.95C527.51 216.95 371.85 216.95 91.66 216.95L71.08 618.31L568.92 618.31C558.26 410.36 552.33 294.84 551.15 271.74C550.84 265.76 555.44 260.66 561.42 260.35C567.49 260.16 572.51 264.65 572.81 270.64C574.65 306.43 589.33 592.81 591.17 628.6C591.32 631.57 590.25 634.47 588.2 636.62C586.16 638.78 583.31 640 580.34 640C476.2 640 111.73 640 59.66 640Z" id="a2frTmo1T2"></path><path d="M325.42 216.95C325.42 216.95 325.42 216.95 325.42 216.95C325.42 457.76 325.42 591.55 325.42 618.31C325.42 618.31 325.42 618.31 325.42 618.31C221.29 618.31 163.43 618.31 151.86 618.31C151.86 618.31 151.86 618.31 151.86 618.31C151.86 377.49 151.86 243.71 151.86 216.95C151.86 216.95 151.86 216.95 151.86 216.95C256 216.95 313.85 216.95 325.42 216.95Z" id="c2oNASvbjf"></path><path d="M401.36 249.49C389.38 249.49 379.66 259.21 379.66 271.19C379.66 283.17 389.38 292.88 401.36 292.88C413.34 292.88 423.05 283.17 423.05 271.19C423.05 259.21 413.34 249.49 401.36 249.49Z" id="fTcDqZY6Y"></path><path d="M404.02 238.75L405.33 238.89L406.63 239.07L407.91 239.31L409.17 239.59L410.41 239.93L411.63 240.31L412.83 240.73L414.01 241.21L415.17 241.72L416.3 242.28L417.41 242.88L418.49 243.53L419.54 244.21L420.56 244.93L421.56 245.69L422.52 246.49L423.46 247.32L424.36 248.19L425.22 249.09L426.06 250.02L426.85 250.99L427.61 251.98L428.33 253L429.02 254.06L429.66 255.14L430.26 256.24L430.82 257.38L431.34 258.53L431.81 259.71L432.24 260.91L432.62 262.13L432.95 263.38L433.24 264.64L433.47 265.92L433.66 267.21L433.79 268.52L433.87 269.85L433.9 271.19L433.87 272.53L433.79 273.85L433.66 275.16L433.47 276.46L433.24 277.74L432.95 279L432.62 280.24L432.24 281.46L431.81 282.66L431.34 283.84L430.82 285L430.26 286.13L429.66 287.24L429.02 288.32L428.33 289.37L427.61 290.39L426.85 291.39L426.06 292.35L425.22 293.29L424.36 294.19L423.46 295.05L422.52 295.89L421.56 296.68L420.56 297.44L419.54 298.16L418.49 298.85L417.41 299.49L416.3 300.09L415.17 300.65L414.01 301.17L412.83 301.64L411.63 302.07L410.41 302.45L409.17 302.78L407.91 303.07L406.63 303.3L405.33 303.49L404.02 303.62L402.7 303.7L401.36 303.73L400.02 303.7L398.69 303.62L397.38 303.49L396.09 303.3L394.81 303.07L393.55 302.78L392.3 302.45L391.08 302.07L389.88 301.64L388.7 301.17L387.55 300.65L386.41 300.09L385.31 299.49L384.23 298.85L383.17 298.16L382.15 297.44L381.15 296.68L380.19 295.89L379.26 295.05L378.36 294.19L377.49 293.29L376.66 292.35L375.86 291.39L375.1 290.39L374.38 289.37L373.7 288.32L373.05 287.24L372.45 286.13L371.89 285L371.38 283.84L370.9 282.66L370.48 281.46L370.1 280.24L369.76 279L369.48 277.74L369.24 276.46L369.06 275.16L368.92 273.85L368.84 272.53L368.81 271.19L368.84 269.85L368.92 268.52L369.06 267.21L369.24 265.92L369.48 264.64L369.76 263.38L370.1 262.13L370.48 260.91L370.9 259.71L371.38 258.53L371.89 257.38L372.45 256.24L373.05 255.14L373.7 254.06L374.38 253L375.1 251.98L375.86 250.99L376.66 250.02L377.49 249.09L378.36 248.19L379.26 247.32L380.19 246.49L381.15 245.69L382.15 244.93L383.17 244.21L384.23 243.53L385.31 242.88L386.41 242.28L387.55 241.72L388.7 241.21L389.88 240.73L391.08 240.31L392.3 239.93L393.55 239.59L394.81 239.31L396.09 239.07L397.38 238.89L398.69 238.75L400.02 238.67L401.36 238.64L402.7 238.67L404.02 238.75ZM398.69 260.67L397.44 261.07L396.26 261.61L395.16 262.28L394.16 263.08L393.25 263.98L392.46 264.99L391.78 266.09L391.24 267.27L390.84 268.52L390.59 269.83L390.51 271.19L390.59 272.55L390.84 273.86L391.24 275.11L391.78 276.28L392.46 277.38L393.25 278.39L394.16 279.3L395.16 280.09L396.26 280.76L397.44 281.3L398.69 281.7L400 281.95L401.36 282.04L402.72 281.95L404.02 281.7L405.27 281.3L406.45 280.76L407.55 280.09L408.56 279.3L409.46 278.39L410.26 277.38L410.93 276.28L411.47 275.11L411.87 273.86L412.12 272.55L412.2 271.19L412.12 269.83L411.87 268.52L411.47 267.27L410.93 266.09L410.26 264.99L409.46 263.98L408.56 263.08L407.55 262.28L406.45 261.61L405.27 261.07L404.02 260.67L402.72 260.42L401.36 260.34L400 260.42L398.69 260.67Z" id="bfmCHnuZ"></path><path d="M238.64 249.49C226.66 249.49 216.95 259.21 216.95 271.19C216.95 283.17 226.66 292.88 238.64 292.88C250.63 292.88 260.34 283.17 260.34 271.19C260.34 259.21 250.63 249.49 238.64 249.49Z" id="c1sUmejzaD"></path><path d="M241.31 238.75L242.62 238.89L243.92 239.07L245.2 239.31L246.46 239.59L247.7 239.93L248.92 240.31L250.12 240.73L251.3 241.21L252.46 241.72L253.59 242.28L254.69 242.88L255.77 243.53L256.83 244.21L257.85 244.93L258.85 245.69L259.81 246.49L260.74 247.32L261.65 248.19L262.51 249.09L263.34 250.02L264.14 250.99L264.9 251.98L265.62 253L266.3 254.06L266.95 255.14L267.55 256.24L268.11 257.38L268.63 258.53L269.1 259.71L269.53 260.91L269.91 262.13L270.24 263.38L270.52 264.64L270.76 265.92L270.95 267.21L271.08 268.52L271.16 269.85L271.19 271.19L271.16 272.53L271.08 273.85L270.95 275.16L270.76 276.46L270.52 277.74L270.24 279L269.91 280.24L269.53 281.46L269.1 282.66L268.63 283.84L268.11 285L267.55 286.13L266.95 287.24L266.3 288.32L265.62 289.37L264.9 290.39L264.14 291.39L263.34 292.35L262.51 293.29L261.65 294.19L260.74 295.05L259.81 295.89L258.85 296.68L257.85 297.44L256.83 298.16L255.77 298.85L254.69 299.49L253.59 300.09L252.46 300.65L251.3 301.17L250.12 301.64L248.92 302.07L247.7 302.45L246.46 302.78L245.2 303.07L243.92 303.3L242.62 303.49L241.31 303.62L239.98 303.7L238.64 303.73L237.31 303.7L235.98 303.62L234.67 303.49L233.37 303.3L232.09 303.07L230.83 302.78L229.59 302.45L228.37 302.07L227.17 301.64L225.99 301.17L224.83 300.65L223.7 300.09L222.6 299.49L221.52 298.85L220.46 298.16L219.44 297.44L218.44 296.68L217.48 295.89L216.54 295.05L215.64 294.19L214.78 293.29L213.95 292.35L213.15 291.39L212.39 290.39L211.67 289.37L210.98 288.32L210.34 287.24L209.74 286.13L209.18 285L208.66 283.84L208.19 282.66L207.76 281.46L207.38 280.24L207.05 279L206.76 277.74L206.53 276.46L206.34 275.16L206.21 273.85L206.13 272.53L206.1 271.19L206.13 269.85L206.21 268.52L206.34 267.21L206.53 265.92L206.76 264.64L207.05 263.38L207.38 262.13L207.76 260.91L208.19 259.71L208.66 258.53L209.18 257.38L209.74 256.24L210.34 255.14L210.98 254.06L211.67 253L212.39 251.98L213.15 250.99L213.95 250.02L214.78 249.09L215.64 248.19L216.54 247.32L217.48 246.49L218.44 245.69L219.44 244.93L220.46 244.21L221.52 243.53L222.6 242.88L223.7 242.28L224.83 241.72L225.99 241.21L227.17 240.73L228.37 240.31L229.59 239.93L230.83 239.59L232.09 239.31L233.37 239.07L234.67 238.89L235.98 238.75L237.31 238.67L238.64 238.64L239.98 238.67L241.31 238.75ZM235.98 260.67L234.73 261.07L233.55 261.61L232.45 262.28L231.44 263.08L230.54 263.98L229.74 264.99L229.07 266.09L228.53 267.27L228.13 268.52L227.88 269.83L227.8 271.19L227.88 272.55L228.13 273.86L228.53 275.11L229.07 276.28L229.74 277.38L230.54 278.39L231.44 279.3L232.45 280.09L233.55 280.76L234.73 281.3L235.98 281.7L237.29 281.95L238.64 282.04L240 281.95L241.31 281.7L242.56 281.3L243.74 280.76L244.84 280.09L245.84 279.3L246.75 278.39L247.55 277.38L248.22 276.28L248.76 275.11L249.16 273.86L249.41 272.55L249.49 271.19L249.41 269.83L249.16 268.52L248.76 267.27L248.22 266.09L247.55 264.99L246.75 263.98L245.84 263.08L244.84 262.28L243.74 261.61L242.56 261.07L241.31 260.67L240 260.42L238.64 260.34L237.29 260.42L235.98 260.67Z" id="a8dEgBLZB"></path><path d="M327.55 0.31L331.27 0.68L334.94 1.21L338.56 1.88L342.13 2.68L345.65 3.63L349.11 4.71L352.52 5.92L355.86 7.26L359.13 8.72L362.34 10.31L365.47 12.01L368.53 13.83L371.52 15.77L374.42 17.81L377.24 19.97L379.97 22.22L382.62 24.58L385.17 27.04L387.63 29.59L389.98 32.23L392.24 34.97L394.39 37.79L396.44 40.69L398.37 43.67L400.19 46.73L401.9 49.87L403.48 53.07L404.95 56.35L406.29 59.69L407.5 63.09L408.58 66.56L409.52 70.07L410.33 73.65L411 77.27L411.52 80.94L411.9 84.65L412.13 88.41L412.2 92.2L412.2 151.87L412.2 152.31L412.17 152.76L412.12 153.19L412.06 153.63L411.98 154.05L411.89 154.47L411.78 154.89L411.65 155.3L411.51 155.7L411.35 156.09L411.18 156.48L410.99 156.85L410.79 157.22L410.58 157.58L410.35 157.93L410.11 158.27L409.86 158.61L409.59 158.93L409.32 159.24L409.03 159.54L408.73 159.83L408.42 160.1L408.09 160.37L407.76 160.62L407.42 160.86L407.07 161.09L406.71 161.3L406.34 161.5L405.96 161.69L405.58 161.86L405.19 162.02L404.79 162.16L404.38 162.29L403.96 162.4L403.54 162.49L403.12 162.57L402.68 162.63L402.25 162.68L401.8 162.7L401.36 162.71L238.64 162.71L238.2 162.7L237.76 162.68L237.32 162.63L236.89 162.57L236.46 162.49L236.04 162.4L235.62 162.29L235.22 162.16L234.82 162.02L234.42 161.86L234.04 161.69L233.66 161.5L233.29 161.3L232.93 161.09L232.58 160.86L232.24 160.62L231.91 160.37L231.59 160.1L231.27 159.83L230.97 159.54L230.69 159.24L230.41 158.93L230.14 158.6L229.89 158.27L229.65 157.93L229.42 157.58L229.21 157.22L229.01 156.85L228.82 156.47L228.65 156.09L228.49 155.7L228.35 155.29L228.22 154.89L228.11 154.47L228.02 154.05L227.94 153.62L227.88 153.19L227.83 152.75L227.81 152.31L227.8 151.86L227.8 92.2L227.87 88.41L228.1 84.65L228.48 80.94L229.01 77.27L229.67 73.65L230.48 70.07L231.43 66.56L232.51 63.09L233.72 59.69L235.05 56.35L236.52 53.07L238.1 49.87L239.81 46.73L241.63 43.67L243.56 40.69L245.61 37.79L247.76 34.97L250.02 32.23L252.38 29.59L254.83 27.04L257.38 24.58L260.03 22.22L262.76 19.97L265.58 17.81L268.48 15.77L271.47 13.83L274.53 12.01L277.66 10.31L280.87 8.72L284.14 7.26L287.49 5.92L290.89 4.71L294.35 3.63L297.87 2.68L301.44 1.88L305.06 1.21L308.73 0.68L312.45 0.31L316.21 0.08L320 0L323.8 0.08L327.55 0.31ZM314.23 21.93L311.39 22.22L308.58 22.62L305.81 23.13L303.08 23.75L300.39 24.47L297.74 25.3L295.14 26.22L292.58 27.25L290.08 28.37L287.63 29.58L285.23 30.88L282.89 32.28L280.61 33.75L278.39 35.32L276.23 36.96L274.14 38.69L272.12 40.49L270.17 42.37L268.29 44.32L266.49 46.34L264.76 48.43L263.12 50.59L261.55 52.81L260.07 55.09L258.68 57.43L257.37 59.83L256.16 62.28L255.04 64.79L254.02 67.34L253.09 69.94L252.27 72.59L251.55 75.28L250.93 78.01L250.42 80.78L250.02 83.59L249.73 86.43L249.55 89.3L249.49 92.2L249.49 141.02L390.51 141.02L390.51 92.2L390.45 89.3L390.27 86.43L389.99 83.59L389.58 80.78L389.07 78.01L388.46 75.28L387.73 72.59L386.91 69.94L385.98 67.34L384.96 64.79L383.84 62.28L382.63 59.83L381.32 57.43L379.93 55.09L378.45 52.81L376.89 50.59L375.24 48.43L373.51 46.34L371.71 44.32L369.83 42.37L367.88 40.49L365.86 38.69L363.77 36.96L361.61 35.32L359.39 33.75L357.11 32.27L354.77 30.88L352.37 29.58L349.92 28.37L347.42 27.25L344.86 26.22L342.26 25.3L339.61 24.47L336.92 23.75L334.19 23.13L331.42 22.62L328.62 22.22L325.77 21.93L322.9 21.75L320 21.7L317.1 21.75L314.23 21.93Z" id="eFqaoJH4A"></path><path d="M227.8 341.7C227.8 335.73 227.8 288 227.8 282.03C227.8 276.04 232.65 271.19 238.64 271.19C244.64 271.19 249.49 276.04 249.49 282.03C249.49 288 249.49 335.73 249.49 341.7C249.49 380.57 281.12 412.2 320 412.2C358.88 412.2 390.51 380.57 390.51 341.7C390.51 336.02 390.51 290.59 390.51 284.91C390.24 284 390.09 283.03 390.09 282.04C390.09 276.04 394.53 271.19 400.52 271.19C400.6 271.19 401.27 271.19 401.36 271.19C407.35 271.19 412.2 276.04 412.2 282.04C412.2 288 412.2 335.73 412.2 341.7C412.2 392.53 370.84 433.9 320 433.9C269.16 433.9 227.8 392.53 227.8 341.7Z" id="aBf5FeHjR"></path></defs><g><g><use xlink:href="#b5c213TidE" opacity="1" fill="#333333" fill-opacity="1"></use><g><use xlink:href="#b5c213TidE" opacity="1" fill-opacity="0" stroke="#000000" stroke-width="1" stroke-opacity="0"></use></g></g><g><use xlink:href="#a1DMgtDqya" opacity="1" fill="#000000" fill-opacity="1"></use><g><use xlink:href="#a1DMgtDqya" opacity="1" fill-opacity="0" stroke="#000000" stroke-width="1" stroke-opacity="0"></use></g></g><g><use xlink:href="#a3EUlv9bVX" opacity="1" fill="#ffffff" fill-opacity="1"></use><g><use xlink:href="#a3EUlv9bVX" opacity="1" fill-opacity="0" stroke="#000000" stroke-width="1" stroke-opacity="0"></use></g></g><g><use xlink:href="#a2frTmo1T2" opacity="1" fill="#000000" fill-opacity="1"></use><g><use xlink:href="#a2frTmo1T2" opacity="1" fill-opacity="0" stroke="#000000" stroke-width="1" stroke-opacity="0"></use></g></g><g><use xlink:href="#c2oNASvbjf" opacity="1" fill="#909090" fill-opacity="1"></use><g><use xlink:href="#c2oNASvbjf" opacity="1" fill-opacity="0" stroke="#000000" stroke-width="1" stroke-opacity="0"></use></g></g><g><use xlink:href="#fTcDqZY6Y" opacity="1" fill="#ffffff" fill-opacity="1"></use><g><use xlink:href="#fTcDqZY6Y" opacity="1" fill-opacity="0" stroke="#000000" stroke-width="1" stroke-opacity="0"></use></g></g><g><use xlink:href="#bfmCHnuZ" opacity="1" fill="#000000" fill-opacity="1"></use><g><use xlink:href="#bfmCHnuZ" opacity="1" fill-opacity="0" stroke="#000000" stroke-width="1" stroke-opacity="0"></use></g></g><g><use xlink:href="#c1sUmejzaD" opacity="1" fill="#ffffff" fill-opacity="1"></use><g><use xlink:href="#c1sUmejzaD" opacity="1" fill-opacity="0" stroke="#000000" stroke-width="1" stroke-opacity="0"></use></g></g><g><use xlink:href="#a8dEgBLZB" opacity="1" fill="#000000" fill-opacity="1"></use><g><use xlink:href="#a8dEgBLZB" opacity="1" fill-opacity="0" stroke="#000000" stroke-width="1" stroke-opacity="0"></use></g></g><g><use xlink:href="#eFqaoJH4A" opacity="1" fill="#000000" fill-opacity="1"></use><g><use xlink:href="#eFqaoJH4A" opacity="1" fill-opacity="0" stroke="#000000" stroke-width="1" stroke-opacity="0"></use></g></g><g><use xlink:href="#aBf5FeHjR" opacity="1" fill="#000000" fill-opacity="1"></use><g><use xlink:href="#aBf5FeHjR" opacity="1" fill-opacity="0" stroke="#000000" stroke-width="1" stroke-opacity="0"></use></g></g></g></svg>